<?xml version="1.0" encoding="UTF-8" standalone="no"?>
<svg
   id="logo_art"
   viewBox="0 0 71.999999 71.999998"
   version="1.1"
   sodipodi:docname="DIGITAL-ACSSC-Main-rgb-logo_edited.svg"
   inkscape:version="1.4.3 (0d15f75, 2025-12-25)"
   width="72"
   height="72"
   xmlns:inkscape="http://www.inkscape.org/namespaces/inkscape"
   xmlns:sodipodi="http://sodipodi.sourceforge.net/DTD/sodipodi-0.dtd"
   xmlns="http://www.w3.org/2000/svg"
   xmlns:svg="http://www.w3.org/2000/svg">
  <sodipodi:namedview
     id="namedview36"
     pagecolor="#ffffff"
     bordercolor="#000000"
     borderopacity="0.25"
     inkscape:showpageshadow="2"
     inkscape:pageopacity="0.0"
     inkscape:pagecheckerboard="0"
     inkscape:deskcolor="#d1d1d1"
     inkscape:zoom="1.6982467"
     inkscape:cx="38.274768"
     inkscape:cy="23.259282"
     inkscape:window-width="945"
     inkscape:window-height="686"
     inkscape:window-x="130"
     inkscape:window-y="38"
     inkscape:window-maximized="0"
     inkscape:current-layer="logo_art" />
  <defs
     id="defs1">
    <style
       id="style1">.cls-1{fill:#fdc82e;}.cls-1,.cls-2{fill-rule:evenodd;}.cls-3,.cls-2{fill:#0039a6;}</style>
  </defs>
  <g
     id="g36"
     transform="translate(3.425,5.135)">
    <polygon
       class="cls-2"
       points="32.32,61.66 0.08,29.18 65.07,29.18 "
       id="polygon15" />
    <path
       class="cls-1"
       d="m 34.01,33.26 h 2.88 v -1.43 h -3.36 c 0,0 -0.24,-0.05 -0.51,0.17 -0.26,0.22 -0.22,0.31 -0.22,0.31 l 0.73,1.18 0.48,-0.24 z m 11.71,5.38 c -1.16,0 -1.37,-0.92 -1.37,-1.9 0,-1.35 0.48,-2.03 1.29,-2.03 0.72,0 1.17,0.42 1.24,1.14 h 2.17 C 48.87,34.06 47.67,33 45.54,33 c -1.95,0 -3.47,1.41 -3.47,3.66 0,2.25 1.39,3.68 3.7,3.68 1.84,0 3.13,-1.08 3.33,-2.88 h -2.2 c -0.09,0.67 -0.43,1.18 -1.17,1.18 z M 34.78,2.69 c 0,0 -0.11,0.5 -0.66,0.13 -0.22,-0.15 -0.37,-0.59 -0.37,-0.59 0,0 0.44,-0.02 0.81,0.04 0.25,0.04 0.24,0.23 0.22,0.42 z m 1.39,0.02 c -0.46,-1.67 -2.4,-1.43 -4.09,-1.43 -1.69,0 -1.19,-1.21 -1.19,-1.21 -1.94,1.69 -0.48,3.12 -0.48,3.12 -2.18,3.62 -1.69,4.57 -1.69,4.57 1.94,1.93 1.94,4.33 1.94,4.33 h -0.49 c 0,-1.91 -1.21,-4.09 -3.38,-5.05 -2.64,-1.43 -5.3,0.72 -5.3,0.72 0,0 -18.77,19.02 -19.25,19.5 -0.48,0.46 -0.97,0.46 -1.43,0.7 0,0 2.88,0.48 5.06,-1.43 5.52,-6.02 14.44,-14.67 14.44,-14.67 0,0 0.33,-0.15 0.48,0.02 0.33,0.37 0,0.68 0,0.68 0,0 -14.46,14.21 -14.92,14.69 -0.73,0.46 -1.45,0.7 -1.45,0.7 2.64,0.48 4.81,-1.43 4.81,-1.43 L 21.49,14.24 c 0,0 0.33,-0.04 0.46,0.13 0.2,0.26 0.02,0.59 0.02,0.59 0,0 -11.3,11.31 -12.02,11.79 -0.24,0.24 -1.69,0.94 -1.69,0.94 2.88,0.48 5.3,-1.91 5.3,-1.91 l 9.63,-9.62 c 0,0 0.39,-0.02 0.48,0.13 0.15,0.29 0,0.59 0,0.59 0,0 -9.14,8.65 -9.39,9.14 -0.73,0.72 -1.94,1.21 -1.94,1.21 0,0 0.97,0 3.14,-0.72 2.16,-0.73 9.76,-8.83 9.76,-8.83 0,0 0.4,-0.09 0.53,0.04 0.22,0.22 0.07,0.35 0.07,0.59 l -6.99,6.5 -1.45,1.21 c 5.3,-1.21 9.38,-6.26 9.38,-6.26 0.48,0 1.45,1.21 1.45,1.21 0,0 0.48,-1.45 1.69,-2.18 1.43,-0.72 1.19,-2.15 1.19,-2.15 2.42,0.7 2.18,2.64 2.18,2.64 0.24,-0.73 2.66,-0.97 2.66,-0.97 v 2.18 c -0.24,0.97 0.22,1.69 0.22,1.69 3.14,-5.07 -0.7,-12.04 -1.43,-13 -0.73,-1.45 -0.73,-1.93 -0.48,-3.6 0.48,-1.21 3.12,-0.97 3.61,-0.72 0.72,0 0.97,0.48 0.97,0.48 0.24,-3.38 -2.66,-2.66 -2.66,-2.66 z m 9.87,24.56 c -0.46,-0.72 -0.97,-1.65 -0.97,-1.65 0,0 0.02,0.15 -0.11,0.81 -0.09,0.42 -0.59,0.59 -0.59,0.59 0,0 -0.29,-0.92 -0.72,-1.21 -1.06,-0.7 -0.73,-1.69 -0.73,-1.69 0,0 -0.53,0.07 -0.81,0.72 -0.29,0.68 -0.15,0.97 -0.15,0.97 0,0 -0.81,-0.72 -0.94,-1.45 -0.18,-0.83 0.28,-1.29 0.28,-1.29 0,0 -1.01,-0.4 -1.25,-0.15 -0.48,0.24 -0.97,0.72 -0.97,0.72 0,0 0.48,-2.39 -0.24,-2.88 l -0.48,-0.48 c 0,0 0.2,0.57 -0.72,0.97 -0.77,0.33 -0.95,1.62 -1.67,1.91 0,0.24 -0.66,-1.43 -0.72,-1.91 -0.15,-0.9 0.18,-1.1 0.18,-2.06 0,0 -1.14,0.55 -1.8,0.61 -0.4,0.04 -1.03,0.97 -1.03,0.97 0,0 0.53,-1.16 -0.24,-2.18 -0.33,-0.44 -0.48,-0.96 -0.48,-0.96 0,0 -0.49,0.96 -0.95,1.45 -0.48,0.48 -1.69,1.21 -1.94,1.94 -0.48,0.72 -0.48,1.43 -0.48,1.43 0,0 -0.48,-0.94 -0.72,-1.19 -0.24,-0.24 -0.92,-0.42 -0.92,-0.42 0,0 -0.02,0.75 -0.77,1.6 -0.81,0.92 -0.22,2.17 -0.22,2.17 0,0 -1.49,0.33 -1.69,-0.24 -0.11,-0.33 0.26,-0.83 0.26,-0.83 0,0 -0.75,0.11 -1.23,0.59 -0.24,0.48 -0.49,1.21 -0.73,1.69 -0.48,0.73 -0.97,1.45 -1.21,1.45 -0.46,-0.24 -0.68,-1.71 -0.68,-1.71 0,0 -2.46,1.23 -0.77,3.14 h 3.87 c 0,0 0.09,-0.77 1.1,-1.52 0.83,-0.62 -0.13,-1.84 -0.13,-1.84 0,0 1.67,0 1.91,0.48 0,0 -0.24,-0.72 0.24,-1.21 0.48,-0.48 0.73,-1.45 0.73,-1.45 0,0 0.24,0.72 0.48,0.97 0.24,0.24 0.97,0.97 0.97,0.97 0,0 0.02,-0.99 0.24,-1.21 0.22,-0.22 0.72,-0.72 0.72,-1.45 v -1.19 c 0,0 2.16,1.43 2.16,2.39 0,0 0.24,-0.48 0.72,-0.97 0.73,-0.24 1.21,-0.46 1.21,-0.46 0,0 -0.48,0.94 1.45,3.12 0,0 0.59,-0.59 0.59,-1.32 0,-0.24 0.9,0.09 1.32,0.59 0.48,0.57 0.48,1.69 0.48,1.69 0,0 0.55,-0.75 0.97,-0.97 0.42,-0.22 1.21,0 1.21,0 0,0 -0.48,1.21 0.24,2.15 0.73,0.72 1.19,1.21 1.19,1.21 h 4.11 c 0,0 0.95,-0.73 0.46,-1.43 z M 44.85,11.39 c 0,0 13.72,13.95 15.41,15.4 1.67,1.43 4.33,0.94 4.33,0.94 -0.48,0 -0.97,-0.46 -0.97,-0.46 0,0 -15.17,-15.18 -19.98,-19.5 -4.57,-4.33 -7.8,2.06 -7.8,2.06 0,0 1.01,2.24 1.54,3.95 0.68,2.2 0.51,4.92 0.51,4.92 5.54,6.98 10.57,7.12 10.57,7.12 -0.48,-0.24 -0.97,-0.48 -0.97,-0.48 L 40.52,18.6 c 0,0 -0.18,-0.22 0,-0.48 0.17,-0.26 0.48,0 0.48,0 0,0 5.03,4.81 6.97,6.74 1.93,2.17 5.05,2.17 5.3,2.17 -0.24,0 -1.93,-1.45 -1.93,-1.45 l -9.12,-8.85 c 0,0 -0.2,-0.33 -0.02,-0.53 0.2,-0.24 0.48,0 0.48,0 0,0 8.2,8.17 9.87,9.86 1.93,1.67 4.57,1.43 4.57,1.43 -0.24,0 -1.43,-0.7 -1.43,-0.7 L 43.4,14.75 c 0,0 -0.26,-0.37 -0.02,-0.61 0.24,-0.24 0.5,-0.11 0.5,-0.11 0,0 10.59,10.83 12.51,12.52 1.93,1.67 5.05,1.43 4.57,1.18 -0.46,0 -0.46,-0.24 -1.19,-0.46 -0.73,-0.24 -15.41,-15.18 -15.41,-15.18 0,0 -0.11,-0.26 0,-0.46 0.2,-0.31 0.48,-0.24 0.48,-0.24 z m -8,28.39 v 0.02 c 0,0 0.21,-0.51 0.21,-0.79 0,-0.87 -0.71,-1.57 -1.58,-1.57 -0.05,0 -0.16,0 -0.16,0 l -3.48,-5.36 c 0,0 -0.11,-0.22 -0.49,-0.24 -0.46,-0.02 -3.12,0 -3.12,0 v 1.43 h 2.66 c 0,0.12 1.95,3.03 3.21,4.96 0,0 -0.2,0.49 -0.2,0.77 0,0.87 0.71,1.57 1.58,1.57 0.07,0 0.21,-0.01 0.21,-0.01 l 1.67,2.48 c 0,0 0.74,0.81 0.01,0.81 h -0.15 c -0.23,-0.37 -0.65,-0.61 -1.12,-0.61 -0.47,0 -0.87,0.24 -1.11,0.61 -0.41,0 -0.85,0 -1.3,0 -0.23,-0.37 -0.63,-0.61 -1.1,-0.61 -0.47,0 -0.88,0.24 -1.11,0.61 -0.47,0 -0.93,0 -1.36,0 -0.23,-0.37 -0.63,-0.62 -1.1,-0.62 -0.47,0 -0.88,0.24 -1.11,0.6 -0.25,0 -0.41,0.02 -0.41,0.02 0,0 -0.72,0.12 -0.24,-0.6 0.28,-0.37 1.16,-1.66 1.93,-2.77 0,0 0.1,0.02 0.18,0.02 0.87,0 1.58,-0.7 1.58,-1.57 0,-0.28 -0.21,-0.78 -0.21,-0.78 l 1.33,-1.99 -0.97,-1.21 -1.59,2.41 c 0,0 -0.1,0 -0.15,0 -0.87,0 -1.58,0.7 -1.58,1.57 0,0.26 0.16,0.7 0.16,0.7 l -2.36,3.5 c -1.14,1.29 0.13,2.19 0.95,2.17 0.3,0 0.8,0 1.41,-0.01 0.24,0.35 0.62,0.57 1.08,0.57 0.46,0 0.86,-0.23 1.09,-0.58 0.45,0 0.91,0 1.38,0 0.24,0.35 0.64,0.59 1.09,0.59 0.45,0 0.86,-0.23 1.09,-0.58 0.46,0 0.9,0 1.33,0 0.24,0.35 0.64,0.58 1.09,0.58 0.45,0 0.86,-0.23 1.09,-0.58 0.56,0 0.9,0 0.9,0 0.62,0.08 2.21,-0.53 1,-1.98 -0.24,-0.48 -2.25,-3.55 -2.25,-3.54 z m 2.7,-12.29 c -0.24,-0.7 0,-1.43 0,-1.43 0,0 -0.97,0.11 -1.21,0.72 -0.37,0.92 -0.97,0.94 -0.97,0.94 0,0 0.24,-1.43 -0.24,-1.91 -0.24,-0.48 -0.72,-0.97 -0.72,-0.97 0,0 0.11,0.68 -0.24,0.97 -0.66,0.53 -0.7,0.48 -0.7,0.48 0,0 -0.97,-0.48 -1.45,-1.45 -0.48,-0.72 -0.48,-1.45 -0.48,-1.45 0,0 -0.73,0 -0.97,0.72 -0.24,0.72 -0.48,1.21 -0.48,1.21 0,0 -0.97,-2.66 -1.67,-2.66 0,0 0.26,0.55 0,0.97 -0.37,0.59 -1.19,1.01 -0.7,1.98 1.01,2 0.48,3.08 0.48,3.08 h 10.57 c 0,0 -1.21,-0.24 -1.21,-1.21 z m -21.31,5.83 -2.5,6.97 h 2.24 l 0.26,-0.92 h 2.28 l 0.27,0.92 h 2.28 l -2.5,-6.97 h -2.32 z m 0.44,4.6 0.71,-2.5 0.74,2.5 h -1.44 z m 13,11.76 c 0,-0.25 0.22,-0.4 0.73,-0.4 0.22,0 0.43,0.04 0.59,0.13 0.16,0.09 0.29,0.23 0.33,0.47 h 2.17 c -0.16,-1.22 -1.05,-2.21 -2.98,-2.21 -1.74,0 -3.02,0.75 -3.02,2.23 0,2.55 3.66,1.99 3.99,2.86 v 0 c 0,0 0.02,0.08 0.02,0.13 0,0.33 -0.38,0.51 -0.95,0.51 -0.22,0 -0.46,-0.06 -0.65,-0.17 -0.17,-0.1 -0.3,-0.26 -0.36,-0.47 v 0 c 0,0 -0.01,-0.05 -0.02,-0.08 h -2.19 c 0,0 0,0.05 0,0.08 v 0 c 0.1,1.22 1.28,2.25 3.08,2.25 1.8,0 3.18,-0.74 3.26,-2.25 0,-0.05 0,-0.1 0,-0.15 0,-2.54 -4.01,-1.89 -4.01,-2.93 z M 28.96,26.3 c -1.52,-0.77 -1.14,-1.65 -1.14,-1.65 0,0 -0.68,-0.05 -0.79,0.68 -0.18,0.99 -0.04,1.94 0,2.12 -0.02,-0.08 -0.1,-0.29 -0.48,-0.67 C 26.07,26.3 25.6,26.3 25.6,26.3 c 0,0 0.24,0.48 0,0.97 -0.24,0.46 -0.72,0.46 -0.97,0.94 -0.24,0.48 0,0.48 0,0.48 h 5.06 c 0,0 0.07,-2 -0.73,-2.39 z"
       id="path19" />
  </g>
</svg>
